# Blender 4.2.1 LTS
# www.blender.org
mtllib confiture.mtl
o confitureT
v -0.007090 0.007180 -0.033311
v -0.001961 0.009223 -0.063443
v 0.002231 0.013950 -0.095478
v -0.000709 0.012913 -0.151332
v 0.002021 0.006666 -0.178298
v 0.000039 0.005822 -0.030705
v 0.015668 0.006623 -0.058956
v 0.026996 0.018048 -0.085260
v 0.042706 0.025090 -0.112540
v 0.060717 0.026170 -0.138590
v 0.096248 0.020559 -0.169883
v 0.116566 -0.003396 -0.170175
v 0.004760 0.004547 -0.023053
v 0.024718 0.006175 -0.041642
v 0.041900 0.018778 -0.056270
v 0.067696 0.026655 -0.071703
v 0.097974 0.030117 -0.089041
v 0.143518 0.027168 -0.115340
v 0.171746 -0.000726 -0.133186
v 0.006581 0.003607 -0.011634
v 0.027069 0.003974 -0.019520
v 0.048601 0.010389 -0.022462
v 0.075454 0.013480 -0.026713
v 0.107036 0.015574 -0.032375
v 0.148345 0.014826 -0.046502
v 0.172205 0.002592 -0.061258
v 0.004849 0.003263 0.003302
v 0.022857 0.001885 0.006275
v 0.047026 0.004754 0.008757
v 0.073061 0.007286 0.013340
v 0.103248 0.008288 0.015709
v 0.133735 0.008306 0.015679
v 0.155034 0.002762 0.015099
v -0.000023 0.003982 0.017166
v 0.016215 0.002352 0.032159
v 0.037374 0.006806 0.052706
v 0.065930 0.014547 0.075084
v 0.122143 0.020899 0.092845
v 0.173141 0.011350 0.109512
v 0.185469 -0.000283 0.113387
v -0.005723 0.004865 0.024957
v 0.006401 0.003315 0.049627
v 0.024795 0.010425 0.081859
v 0.058831 0.028977 0.113967
v 0.119433 0.029234 0.162386
v 0.161967 0.009669 0.192688
v 0.161252 -0.005851 0.186316
v -0.013089 0.005981 0.027193
v -0.010772 0.004772 0.054254
v -0.001889 0.008046 0.096265
v 0.012655 0.024064 0.138634
v 0.037542 0.024228 0.189116
v 0.051901 0.007028 0.206358
v 0.050574 -0.004312 0.205472
v -0.022562 0.007353 0.024363
v -0.034099 0.006499 0.051806
v -0.048835 0.002721 0.097715
v -0.062150 0.001539 0.144985
v -0.066746 0.002372 0.178550
v -0.067050 0.001126 0.199855
v -0.063341 -0.006118 0.204069
v -0.031795 0.008506 0.017526
v -0.058754 0.008120 0.043373
v -0.075956 0.025244 0.094505
v -0.116124 0.027245 0.155996
v -0.150329 0.012478 0.189027
v -0.159017 -0.000577 0.198662
v -0.150065 -0.012089 0.188067
v -0.011213 0.005909 -0.002169
v -0.036585 0.009177 0.007758
v -0.067888 0.010025 0.023279
v -0.096232 0.023415 0.052361
v -0.137078 0.031899 0.101524
v -0.190923 0.021360 0.132210
v -0.199345 0.002263 0.134739
v -0.182149 -0.009618 0.119392
v -0.034051 0.009552 -0.006032
v -0.061074 0.011991 -0.005600
v -0.087827 0.012466 -0.001677
v -0.112494 0.014583 0.002871
v -0.144440 0.013818 -0.001491
v -0.169048 0.007973 -0.013281
v -0.175713 -0.004024 -0.023790
v -0.024753 0.009301 -0.021275
v -0.042566 0.015393 -0.036255
v -0.071039 0.024233 -0.050139
v -0.105306 0.028896 -0.065759
v -0.146851 0.027453 -0.086603
v -0.179846 0.013989 -0.103316
v -0.182035 -0.003673 -0.105892
v -0.015061 0.008408 -0.030677
v -0.021015 0.013044 -0.056834
v -0.037094 0.022570 -0.083034
v -0.062515 0.028430 -0.108697
v -0.091916 0.027786 -0.135686
v -0.133093 0.015596 -0.161028
v -0.147447 -0.004505 -0.164825
v 0.001572 0.016897 -0.124813
v 0.000279 -0.003632 -0.190523
vn -0.1211 0.9643 -0.2357
vn 0.1121 0.7521 -0.6495
vn 0.1650 0.9843 0.0620
vn 0.1234 0.9884 0.0880
vn -0.2085 0.9711 0.1160
vn -0.2278 0.9665 0.1183
vn -0.1832 0.9744 -0.1306
vn 0.4898 0.4247 -0.7614
vn 0.1651 0.9843 0.0621
vn -0.0023 0.9996 0.0271
vn -0.4287 0.8814 0.1982
vn -0.2407 0.9643 0.1103
vn -0.0836 0.9964 -0.0165
vn 0.0287 0.9891 -0.1447
vn 0.1574 0.9859 0.0561
vn 0.0101 0.9951 0.0979
vn -0.3900 0.8727 0.2938
vn -0.1119 0.9483 0.2970
vn 0.0290 0.9693 0.2441
vn 0.1575 0.9739 0.1636
vn 0.4340 0.8998 -0.0443
vn 0.1491 0.9880 0.0400
vn 0.0141 0.9965 0.0830
vn -0.2620 0.9520 0.1586
vn -0.0901 0.9850 0.1469
vn -0.0392 0.9884 0.1467
vn 0.0582 0.9914 0.1176
vn 0.2529 0.9659 0.0547
vn 0.1608 0.9870 0.0053
vn 0.0942 0.9955 0.0062
vn -0.1345 0.9880 -0.0757
vn -0.1605 0.9780 -0.1335
vn -0.0656 0.9872 -0.1453
vn 0.2218 0.9671 -0.1245
vn 0.7049 0.6813 -0.1972
vn 0.1113 0.9938 0.0077
vn -0.0945 0.9821 -0.1627
vn -0.1525 0.9171 -0.3682
vn 0.0878 0.9895 -0.1152
vn 0.1703 0.9845 0.0428
vn 0.9396 -0.1662 0.2993
vn 0.1604 0.9870 0.0055
vn -0.1168 0.9918 -0.0526
vn -0.2462 0.9291 -0.2759
vn -0.0445 0.9977 0.0504
vn 0.0664 0.7335 0.6764
vn 0.1684 -0.0964 0.9810
vn 0.1520 0.9883 0.0073
vn 0.0895 0.9958 0.0186
vn -0.1142 0.9920 -0.0532
vn -0.2986 0.9221 -0.2461
vn -0.2140 0.9715 0.1023
vn -0.0526 0.9970 0.0576
vn -0.0186 0.4956 0.8683
vn 0.1414 0.9899 0.0066
vn 0.0698 0.9968 0.0386
vn 0.4585 0.8461 0.2719
vn 0.1190 0.9929 -0.0084
vn -0.0192 0.9981 0.0581
vn -0.0807 -0.7082 0.7014
vn 0.1245 0.9922 -0.0008
vn 0.0445 0.9971 0.0613
vn 0.6412 0.7663 -0.0409
vn 0.1128 0.9928 0.0414
vn -0.1582 0.9521 0.2619
vn -0.5940 0.6947 0.4056
vn -0.6266 -0.7324 0.2664
vn 0.1295 0.9916 0.0046
vn 0.0531 0.9961 0.0703
vn 0.3292 0.9232 -0.1984
vn -0.2703 0.9514 -0.1477
vn -0.2271 0.9738 -0.0089
vn -0.6021 -0.7963 -0.0582
vn 0.1484 0.9874 0.0542
vn 0.0685 0.9941 0.0839
vn 0.2971 0.9438 -0.1450
vn -0.0050 0.9847 -0.1741
vn -0.2737 0.9569 0.0968
vn -0.8970 0.4362 0.0709
vn 0.1452 0.9868 0.0723
vn 0.0913 0.9822 0.1641
vn 0.1555 0.9462 0.2836
vn 0.0383 0.9774 0.2079
vn -0.1145 0.9804 0.1603
vn -0.2809 0.9384 -0.2014
vn -0.8476 0.1779 -0.5000
vn 0.1544 0.9858 0.0656
vn 0.2250 0.9663 0.1254
vn 0.2143 0.9614 0.1726
vn 0.0962 0.9917 0.0851
vn -0.0244 0.9995 -0.0205
vn 0.0185 -0.9997 0.0172
vn -0.1142 0.7678 -0.6305
vn 0.1722 0.9830 0.0629
vn 0.2343 0.9650 0.1177
vn 0.2651 0.9470 0.1816
vn 0.1866 0.9817 0.0394
vn 0.1324 0.9785 -0.1584
vn 0.0360 0.9744 -0.2221
vn -0.1355 0.9370 -0.3218
vn 0.0773 0.0777 -0.9940
vn 0.1474 0.9830 0.1094
vn 0.0304 0.9120 0.4092
vn -0.2034 0.9737 0.1024
vn -0.1722 0.9819 -0.0784
vn 0.4457 0.7569 -0.4780
vn 0.0462 0.9896 0.1363
vn -0.4281 0.8695 0.2463
vn -0.2369 0.9666 0.0974
vn -0.1004 0.9947 0.0233
vn 0.0130 0.9959 -0.0891
vn 0.0129 0.9967 0.0800
vn -0.2678 0.9555 0.1235
vn -0.0709 0.9647 0.2535
vn -0.0128 0.9590 0.2831
vn 0.0971 0.9677 0.2328
vn 0.7238 0.6862 0.0723
vn 0.0711 0.9970 0.0312
vn -0.1237 0.9905 0.0600
vn -0.1250 0.9775 0.1701
vn -0.0445 0.9877 0.1501
vn -0.0004 0.9887 0.1498
vn 0.5470 0.8095 0.2134
vn 0.0801 0.9965 -0.0235
vn -0.1130 0.9925 -0.0469
vn -0.0852 0.9942 -0.0651
vn -0.0236 0.9926 -0.1194
vn -0.0008 0.9869 -0.1612
vn 0.2462 0.9598 -0.1345
vn 0.1214 0.9923 -0.0236
vn -0.1004 0.9887 -0.1109
vn -0.1268 0.9762 -0.1759
vn 0.0038 0.9377 -0.3473
vn 0.4669 0.8800 -0.0873
vn 0.6651 0.7395 0.1043
vn 0.0215 0.9737 -0.2270
vn -0.2310 0.9337 -0.2737
vn -0.0852 0.9956 0.0388
vn 0.0913 0.8901 0.4465
vn 0.1229 -0.3818 0.9160
vn 0.1589 0.9868 0.0305
vn 0.0628 0.9928 0.1019
vn -0.1129 0.9936 -0.0069
vn -0.2927 0.9541 -0.0638
vn -0.2044 0.6026 0.7714
vn -0.0509 -0.0719 0.9961
vn 0.1191 0.9896 0.0809
vn 0.6135 0.7660 0.1920
vn 0.4197 0.5833 0.6954
vn 0.1675 0.5109 0.8432
vn -0.0204 0.4949 0.8687
vn 0.0773 0.9950 0.0634
vn 0.0337 0.9951 0.0927
vn 0.0976 0.9912 -0.0900
vn -0.1187 0.9844 0.1298
vn -0.7181 0.3928 0.5745
vn -0.4129 -0.8835 0.2213
vn 0.0491 0.9978 0.0445
vn 0.3611 0.9294 -0.0760
vn -0.0000 0.9849 -0.1729
vn -0.8803 0.3451 -0.3255
vn -0.8067 0.5734 -0.1430
vn 0.0905 0.9949 0.0437
vn 0.0286 0.9968 0.0746
vn 0.0489 0.9804 -0.1910
vn -0.4393 0.8850 0.1542
vn -0.9867 0.1040 0.1253
vn 0.2272 0.9661 0.1227
vn 0.0370 0.9905 0.1322
vn 0.1327 0.9516 0.2770
vn -0.0506 0.9787 0.1988
vn -0.1720 0.9674 -0.1859
vn -0.6507 0.5612 -0.5115
vn 0.2097 0.9698 0.1242
vn 0.2720 0.9459 0.1769
vn 0.1361 0.9866 0.0905
vn -0.0062 0.9998 -0.0171
vn 0.0175 -0.9988 0.0460
vn 0.0072 -0.9994 -0.0332
vn -0.0287 -0.9959 -0.0856
vn -0.0083 -0.9982 0.0591
vn 0.0295 -0.9995 0.0089
vn 0.0093 -0.9998 0.0196
vn -0.0017 -1.0000 -0.0041
vn 0.0821 -0.9939 -0.0741
vn 0.0554 -0.9978 -0.0365
vn 0.0162 -0.9995 -0.0282
vn 0.0229 -0.9995 -0.0205
vn -0.1058 0.2570 -0.9606
vn 0.1829 0.9783 0.0975
vn 0.2511 0.9523 0.1734
vn 0.2408 0.9662 0.0917
vn 0.1334 0.9766 -0.1686
vn 0.0543 0.8625 -0.5031
vt 0.714286 0.642857
vt 0.642857 0.571429
vt 0.714286 0.571429
vt 0.642857 0.500000
vt 0.714286 0.500000
vt 0.714286 0.928572
vt 0.678571 1.000000
vt 0.642857 0.928572
vt 0.642857 0.857143
vt 0.714286 0.857143
vt 0.642857 0.785714
vt 0.714286 0.785714
vt 0.714286 0.714286
vt 0.642857 0.714286
vt 0.642857 0.642857
vt 0.571429 0.500000
vt 0.607143 1.000000
vt 0.571429 0.928572
vt 0.571429 0.857143
vt 0.571429 0.785714
vt 0.571429 0.714286
vt 0.571429 0.642857
vt 0.571429 0.571429
vt 0.535714 1.000000
vt 0.500000 0.928571
vt 0.500000 0.857143
vt 0.500000 0.785714
vt 0.500000 0.714286
vt 0.500000 0.642857
vt 0.500000 0.571429
vt 0.500000 0.500000
vt 0.464286 1.000000
vt 0.428571 0.928571
vt 0.428571 0.857143
vt 0.428571 0.785714
vt 0.428571 0.714286
vt 0.428571 0.642857
vt 0.428571 0.571429
vt 0.428571 0.500000
vt 0.392857 1.000000
vt 0.357143 0.928572
vt 0.357143 0.857143
vt 0.357143 0.785714
vt 0.357143 0.714286
vt 0.357143 0.642857
vt 0.357143 0.571429
vt 0.357143 0.500000
vt 0.285714 0.928572
vt 0.285714 0.857143
vt 0.285714 0.785714
vt 0.285714 0.714286
vt 0.285714 0.642857
vt 0.285714 0.571429
vt 0.285714 0.500000
vt 0.321429 1.000000
vt 0.214286 0.857143
vt 0.214286 0.785714
vt 0.214286 0.714286
vt 0.214286 0.642857
vt 0.214286 0.571429
vt 0.214286 0.500000
vt 0.250000 1.000000
vt 0.214286 0.928572
vt 0.142857 0.785714
vt 0.142857 0.714286
vt 0.142857 0.642857
vt 0.142857 0.571429
vt 0.142857 0.500000
vt 0.178571 1.000000
vt 0.142857 0.928572
vt 0.142857 0.857143
vt 0.071429 0.785714
vt 0.071429 0.714286
vt 0.071429 0.642857
vt 0.071429 0.571429
vt 0.071429 0.500000
vt 0.107143 1.000000
vt 0.071429 0.928572
vt 0.071429 0.857143
vt 0.000000 0.714286
vt 0.000000 0.642857
vt 0.000000 0.571429
vt 0.000000 0.500000
vt 0.035714 1.000000
vt 0.000000 0.928572
vt 0.000000 0.857143
vt 0.000000 0.785714
vt 1.000000 0.714286
vt 0.928571 0.642857
vt 1.000000 0.642857
vt 1.000000 0.571429
vt 0.928571 0.571429
vt 0.928571 0.500000
vt 1.000000 0.500000
vt 1.000000 0.928572
vt 0.964286 1.000000
vt 0.928571 0.928572
vt 0.928571 0.857143
vt 1.000000 0.857143
vt 0.928571 0.785714
vt 1.000000 0.785714
vt 0.928571 0.714286
vt 0.857143 0.571429
vt 0.857143 0.500000
vt 0.892857 1.000000
vt 0.857143 0.928572
vt 0.857143 0.857143
vt 0.857143 0.785714
vt 0.857143 0.714286
vt 0.857143 0.642857
vt 0.785714 0.571429
vt 0.785714 0.500000
vt 0.821429 1.000000
vt 0.785714 0.928572
vt 0.785714 0.857143
vt 0.785714 0.785714
vt 0.785714 0.714286
vt 0.785714 0.642857
vt 0.750000 1.000000
s 0
f 4/1/1 11/2/1 5/3/1
f 5/3/2 12/4/2 99/5/2
f 1/6/3 69/7/3 6/8/3
f 1/6/4 7/9/4 2/10/4
f 2/10/5 8/11/5 3/12/5
f 98/13/6 8/11/6 9/14/6
f 98/13/7 10/15/7 4/1/7
f 11/2/8 19/16/8 12/4/8
f 6/8/9 69/17/9 13/18/9
f 6/8/10 14/19/10 7/9/10
f 7/9/11 15/20/11 8/11/11
f 8/11/12 16/21/12 9/14/12
f 9/14/13 17/22/13 10/15/13
f 10/15/14 18/23/14 11/2/14
f 13/18/15 69/24/15 20/25/15
f 13/18/16 21/26/16 14/19/16
f 14/19/17 22/27/17 15/20/17
f 15/20/18 23/28/18 16/21/18
f 16/21/19 24/29/19 17/22/19
f 17/22/20 25/30/20 18/23/20
f 19/16/21 25/30/21 26/31/21
f 20/25/22 69/32/22 27/33/22
f 20/25/23 28/34/23 21/26/23
f 21/26/24 29/35/24 22/27/24
f 22/27/25 30/36/25 23/28/25
f 23/28/26 31/37/26 24/29/26
f 24/29/27 32/38/27 25/30/27
f 26/31/28 32/38/28 33/39/28
f 27/33/29 69/40/29 34/41/29
f 28/34/30 34/41/30 35/42/30
f 29/35/31 35/42/31 36/43/31
f 30/36/32 36/43/32 37/44/32
f 31/37/33 37/44/33 38/45/33
f 32/38/34 38/45/34 39/46/34
f 33/39/35 39/46/35 40/47/35
f 35/42/36 41/48/36 42/49/36
f 36/43/37 42/49/37 43/50/37
f 37/44/38 43/50/38 44/51/38
f 38/45/39 44/51/39 45/52/39
f 38/45/40 46/53/40 39/46/40
f 40/47/41 46/53/41 47/54/41
f 34/41/42 69/55/42 41/48/42
f 43/50/43 49/56/43 50/57/43
f 43/50/44 51/58/44 44/51/44
f 44/51/45 52/59/45 45/52/45
f 46/53/46 52/59/46 53/60/46
f 47/54/47 53/60/47 54/61/47
f 41/48/48 69/62/48 48/63/48
f 41/48/49 49/56/49 42/49/49
f 49/56/50 57/64/50 50/57/50
f 50/57/51 58/65/51 51/58/51
f 51/58/52 59/66/52 52/59/52
f 53/60/53 59/66/53 60/67/53
f 54/61/54 60/67/54 61/68/54
f 48/63/55 69/69/55 55/70/55
f 48/63/56 56/71/56 49/56/56
f 58/65/57 64/72/57 65/73/57
f 58/65/58 66/74/58 59/66/58
f 59/66/59 67/75/59 60/67/59
f 61/68/60 67/75/60 68/76/60
f 55/70/61 69/77/61 62/78/61
f 56/71/62 62/78/62 63/79/62
f 57/64/63 63/79/63 64/72/63
f 64/72/64 73/80/64 65/73/64
f 65/73/65 74/81/65 66/74/65
f 66/74/66 75/82/66 67/75/66
f 67/75/67 76/83/67 68/76/67
f 62/78/68 69/84/68 70/85/68
f 62/78/69 71/86/69 63/79/69
f 63/79/70 72/87/70 64/72/70
f 73/88/71 81/89/71 74/90/71
f 75/91/72 81/89/72 82/92/72
f 75/91/73 83/93/73 76/94/73
f 70/95/74 69/96/74 77/97/74
f 70/95/75 78/98/75 71/99/75
f 71/99/76 79/100/76 72/101/76
f 72/101/77 80/102/77 73/88/77
f 81/89/78 89/103/78 82/92/78
f 82/92/79 90/104/79 83/93/79
f 77/97/80 69/105/80 84/106/80
f 77/97/81 85/107/81 78/98/81
f 79/100/82 85/107/82 86/108/82
f 80/102/83 86/108/83 87/109/83
f 81/89/84 87/109/84 88/110/84
f 88/110/85 96/111/85 89/103/85
f 89/103/86 97/112/86 90/104/86
f 84/106/87 69/113/87 91/114/87
f 84/106/88 92/115/88 85/107/88
f 85/107/89 93/116/89 86/108/89
f 86/108/90 94/117/90 87/109/90
f 87/109/91 95/118/91 88/110/91
f 99/5/92 33/39/92 83/93/92
f 97/112/93 5/3/93 99/5/93
f 91/114/94 69/119/94 1/6/94
f 91/114/95 2/10/95 92/115/95
f 92/115/96 3/12/96 93/116/96
f 93/116/97 98/13/97 94/117/97
f 95/118/98 98/13/98 4/1/98
f 96/111/99 4/1/99 5/3/99
f 4/1/100 10/15/100 11/2/100
f 5/3/101 11/2/101 12/4/101
f 1/6/102 6/8/102 7/9/102
f 2/10/103 7/9/103 8/11/103
f 98/13/104 3/12/104 8/11/104
f 98/13/105 9/14/105 10/15/105
f 11/2/106 18/23/106 19/16/106
f 6/8/107 13/18/107 14/19/107
f 7/9/108 14/19/108 15/20/108
f 8/11/109 15/20/109 16/21/109
f 9/14/110 16/21/110 17/22/110
f 10/15/111 17/22/111 18/23/111
f 13/18/112 20/25/112 21/26/112
f 14/19/113 21/26/113 22/27/113
f 15/20/114 22/27/114 23/28/114
f 16/21/115 23/28/115 24/29/115
f 17/22/116 24/29/116 25/30/116
f 19/16/117 18/23/117 25/30/117
f 20/25/118 27/33/118 28/34/118
f 21/26/119 28/34/119 29/35/119
f 22/27/120 29/35/120 30/36/120
f 23/28/121 30/36/121 31/37/121
f 24/29/122 31/37/122 32/38/122
f 26/31/123 25/30/123 32/38/123
f 28/34/124 27/33/124 34/41/124
f 29/35/125 28/34/125 35/42/125
f 30/36/126 29/35/126 36/43/126
f 31/37/127 30/36/127 37/44/127
f 32/38/128 31/37/128 38/45/128
f 33/39/129 32/38/129 39/46/129
f 35/42/130 34/41/130 41/48/130
f 36/43/131 35/42/131 42/49/131
f 37/44/132 36/43/132 43/50/132
f 38/45/133 37/44/133 44/51/133
f 38/45/134 45/52/134 46/53/134
f 40/47/135 39/46/135 46/53/135
f 43/50/136 42/49/136 49/56/136
f 43/50/137 50/57/137 51/58/137
f 44/51/138 51/58/138 52/59/138
f 46/53/139 45/52/139 52/59/139
f 47/54/140 46/53/140 53/60/140
f 41/48/141 48/63/141 49/56/141
f 49/56/142 56/71/142 57/64/142
f 50/57/143 57/64/143 58/65/143
f 51/58/144 58/65/144 59/66/144
f 53/60/145 52/59/145 59/66/145
f 54/61/146 53/60/146 60/67/146
f 48/63/147 55/70/147 56/71/147
f 58/65/148 57/64/148 64/72/148
f 58/65/149 65/73/149 66/74/149
f 59/66/150 66/74/150 67/75/150
f 61/68/151 60/67/151 67/75/151
f 56/71/152 55/70/152 62/78/152
f 57/64/153 56/71/153 63/79/153
f 64/72/154 72/87/154 73/80/154
f 65/73/155 73/80/155 74/81/155
f 66/74/156 74/81/156 75/82/156
f 67/75/157 75/82/157 76/83/157
f 62/78/158 70/85/158 71/86/158
f 63/79/159 71/86/159 72/87/159
f 73/88/160 80/102/160 81/89/160
f 75/91/161 74/90/161 81/89/161
f 75/91/162 82/92/162 83/93/162
f 70/95/163 77/97/163 78/98/163
f 71/99/164 78/98/164 79/100/164
f 72/101/165 79/100/165 80/102/165
f 81/89/166 88/110/166 89/103/166
f 82/92/167 89/103/167 90/104/167
f 77/97/168 84/106/168 85/107/168
f 79/100/169 78/98/169 85/107/169
f 80/102/170 79/100/170 86/108/170
f 81/89/171 80/102/171 87/109/171
f 88/110/172 95/118/172 96/111/172
f 89/103/173 96/111/173 97/112/173
f 84/106/174 91/114/174 92/115/174
f 85/107/175 92/115/175 93/116/175
f 86/108/176 93/116/176 94/117/176
f 87/109/177 94/117/177 95/118/177
f 12/4/178 19/16/178 26/31/178
f 33/39/179 40/47/179 54/61/179
f 40/47/180 47/54/180 54/61/180
f 12/4/181 26/31/181 99/5/181
f 26/31/182 33/39/182 99/5/182
f 97/112/183 99/5/183 90/104/183
f 83/93/184 90/104/184 99/5/184
f 68/76/185 76/83/185 61/68/185
f 76/83/186 83/93/186 61/68/186
f 54/61/187 61/68/187 33/39/187
f 33/39/188 61/68/188 83/93/188
f 97/112/189 96/111/189 5/3/189
f 91/114/190 1/6/190 2/10/190
f 92/115/191 2/10/191 3/12/191
f 93/116/192 3/12/192 98/13/192
f 95/118/193 94/117/193 98/13/193
f 96/111/194 95/118/194 4/1/194
